<svg xmlns="http://www.w3.org/2000/svg" viewBox="0 0 111 29.63"><title>ANA</title><path d="M55.49,17.77" style="fill:none;stroke:#000;stroke-width:0.3356px"/><polygon points="93.9 29.62 111 0 86.36 0 69.26 29.63 93.9 29.62" style="fill:#fff"/><polygon points="103.48 1.18 87.73 28.44 93.21 28.44 108.94 1.18 103.48 1.18" style="fill:#00a6e9"/><polygon points="87.73 28.44 103.48 1.18 87.05 1.18 71.31 28.44 87.73 28.44" style="fill:#0b308e"/><path d="M30.51,11.45a.52.52,0,0,1,.49-.4.54.54,0,0,1,.47.34l5,18.23h8.19l4.18-23.7H45.25L42,24.18a.48.48,0,0,1-.94,0l-5-18.29H27.87l-4.18,23.7H27.3Z" style="fill:#fff"/><path d="M16.51,21.58,15.81,11a.56.56,0,0,0-.4-.52.54.54,0,0,0-.63.3L4.09,29.62H0L13.43,5.93h7.9l1.57,23.7H17L16.88,27a1,1,0,0,0-1-1H7l2-3.54h6.65A.87.87,0,0,0,16.51,21.58Z" style="fill:#fff"/><path d="M61.07,21.64l-.93-10.52a.53.53,0,0,0-1-.24L49.52,29.62h-4L57.69,5.93h7.89l2.1,23.7h-5.9L61.54,27a1,1,0,0,0-1-1H52.24l1.82-3.54h6.15A.84.84,0,0,0,61.07,21.64Z" style="fill:#fff"/></svg>