<svg width="18" height="16" viewBox="0 0 18 16" xmlns="http://www.w3.org/2000/svg"><title>header-home</title><path d="M7.147 14.325c-.005-1.065.001-2.441.061-2.811.133-.803.814-1.263 1.792-1.283.978.02 1.657.48 1.791 1.283.062.37.066 1.746.062 2.811H7.147zm10.316-6.95L9.609.309C9.419.133 9.279.002 9.001 0h-.003c-.279.002-.415.133-.61.308L.539 7.376c-.619.557-.57.738-.495.843.146.205.344.164 1.153.178l2.31-.003v6.64l.127.112h10.733l.13-.112v-6.64l2.308.003c.81-.014 1.008.027 1.154-.178.074-.105.12-.286-.495-.843z" fill="#FFF" fill-rule="evenodd"/></svg>